<svg width="96" height="63" viewBox="0 0 96 63" fill="none" xmlns="http://www.w3.org/2000/svg">
<path d="M95.8864 43.5443L87.6882 10.3418C87.1173 6.68716 83.5652 0 74.0508 0C73.42 0 72.8149 0.245769 72.3689 0.683241C71.9228 1.12071 71.6722 1.71405 71.6722 2.33273C71.6722 2.95141 71.9228 3.54475 72.3689 3.98222C72.8149 4.41969 73.42 4.66546 74.0508 4.66546C81.7416 4.66546 82.8834 10.4662 82.9944 11.1038L90.5425 41.7403H87.2283C86.8854 39.0678 85.9567 36.4997 84.506 34.2125C83.0552 31.9254 81.1168 29.9733 78.8239 28.4904C78.1058 28.7869 77.4928 29.2842 77.0613 29.9204C76.6298 30.5565 76.399 31.3032 76.3977 32.0673C76.4064 32.2019 76.4064 32.337 76.3977 32.4716C78.326 33.7686 79.9086 35.5007 81.0123 37.5222C82.1161 39.5438 82.7088 41.7957 82.7406 44.0886C82.7311 44.8708 82.6568 45.6509 82.5186 46.4213C81.9995 49.725 80.292 52.7374 77.7048 54.9135C75.1177 57.0897 71.8219 58.286 68.4135 58.286C65.0051 58.286 61.7093 57.0897 59.1222 54.9135C56.535 52.7374 54.8275 49.725 54.3084 46.4213C54.1702 45.6509 54.0959 44.8708 54.0863 44.0886C54.1111 41.9311 54.6258 39.8061 55.5928 37.868C54.7907 37.8128 54.04 37.4609 53.4924 36.8835C52.9448 36.3061 52.6413 35.5462 52.6433 34.7577C52.646 34.4752 52.5382 34.2025 52.342 33.9957C50.8077 36.3434 49.8371 39.0022 49.5036 41.7714H46.5541C46.0481 37.1973 43.837 32.9678 40.3454 29.8949C36.8537 26.822 32.3276 25.1224 27.6362 25.1224C22.9448 25.1224 18.4187 26.822 14.9271 29.8949C11.4355 32.9678 9.22435 37.1973 8.71836 41.7714H5.43588L12.9999 11.1038C13.095 10.4662 14.2843 4.66546 21.9434 4.66546C22.5743 4.66546 23.1793 4.41969 23.6254 3.98222C24.0714 3.54475 24.322 2.95141 24.322 2.33273C24.322 1.71405 24.0714 1.12071 23.6254 0.683241C23.1793 0.245769 22.5743 0 21.9434 0C12.429 0 8.87694 6.68716 8.30607 10.3418L0.0919434 43.5443C-0.00966499 43.8822 -0.0273532 44.2391 0.0403561 44.5851C0.108065 44.9311 0.259207 45.2562 0.481158 45.5333C0.703108 45.8103 0.989426 46.0312 1.3162 46.1776C1.64297 46.324 2.00071 46.3916 2.35955 46.3747H8.70251C8.83153 47.3366 9.03294 48.2879 9.30509 49.2206C9.40525 49.0501 9.45981 48.8575 9.46366 48.6608C9.46366 47.8359 9.7978 47.0447 10.3926 46.4614C10.9873 45.8782 11.794 45.5505 12.6351 45.5505C12.8926 45.5538 13.1485 45.5904 13.3963 45.6593C13.3272 45.1176 13.2901 44.5724 13.2853 44.0264C13.2895 43.2446 13.3585 42.4645 13.4914 41.6937C13.9995 38.3794 15.7033 35.3539 18.2932 33.1673C20.8831 30.9806 24.1871 29.7779 27.6045 29.7779C31.022 29.7779 34.3259 30.9806 36.9158 33.1673C39.5057 35.3539 41.2096 38.3794 41.7176 41.6937C41.8505 42.4645 41.9195 43.2446 41.9237 44.0264C41.8988 47.7309 40.3872 51.2768 37.7161 53.8963C35.045 56.5159 31.4295 57.9983 27.6521 58.0228C24.5605 58.0644 21.5388 57.1202 19.0415 55.3324C18.4693 55.8198 17.738 56.0901 16.9801 56.0944C16.6674 56.0985 16.3689 56.2232 16.1493 56.4415C15.9297 56.6598 15.8066 56.9541 15.8066 57.2608C15.8023 57.6956 15.7051 58.1247 15.5212 58.5205C18.9137 61.2779 23.1825 62.7852 27.5887 62.7816C32.2431 62.8012 36.7434 61.1472 40.2383 58.1324C43.7331 55.1176 45.9801 50.9512 46.5541 46.4213H49.4401C49.9624 50.9814 52.1795 55.1929 55.6679 58.2511C59.1562 61.3094 63.6711 63 68.3501 63C73.029 63 77.544 61.3094 81.0323 58.2511C84.5206 55.1929 86.7377 50.9814 87.26 46.4213H93.603C93.9696 46.4473 94.3371 46.3843 94.673 46.2377C95.0089 46.0912 95.3027 45.8657 95.5285 45.5812C95.7543 45.2967 95.9051 44.962 95.9675 44.6067C96.0299 44.2514 96.0021 43.8865 95.8864 43.5443Z" fill="black"/>
</svg>
