<svg xmlns="http://www.w3.org/2000/svg" fill="none" viewBox="0 0 154 39">
  <path fill="#fff" d="M22.75 6.14v7.92H10.24v4.41h9v7.515h-9V38H.25V6.14h22.5ZM82 25.31c0-2.67.45-4.98 1.35-6.93.93-1.98 2.19-3.48 3.78-4.5 1.59-1.05 3.376-1.575 5.356-1.575 1.65 0 3.06.345 4.23 1.035 1.2.66 2.115 1.575 2.745 2.745V4.7h9.99V38h-9.99v-3.465c-.63 1.17-1.545 2.1-2.745 2.79-1.17.66-2.58.99-4.23.99-1.98 0-3.765-.51-5.355-1.53-1.59-1.05-2.85-2.55-3.78-4.5-.9-1.98-1.35-4.305-1.35-6.975Zm17.506 0c0-1.35-.345-2.4-1.035-3.15s-1.575-1.125-2.655-1.125c-1.08 0-1.965.375-2.655 1.125-.69.75-1.035 1.8-1.035 3.15 0 1.35.345 2.4 1.035 3.15s1.575 1.125 2.655 1.125c1.08 0 1.965-.375 2.655-1.125.69-.75 1.035-1.8 1.035-3.15Zm19.471-14.715c-1.74 0-3.135-.465-4.185-1.395-1.05-.93-1.575-2.1-1.575-3.51 0-1.44.525-2.625 1.575-3.555 1.05-.96 2.445-1.44 4.185-1.44 1.71 0 3.09.48 4.14 1.44 1.05.93 1.575 2.115 1.575 3.555 0 1.41-.525 2.58-1.575 3.51-1.05.93-2.43 1.395-4.14 1.395Zm4.95 2.025V38h-9.99V12.62h9.99Zm29.081 12.465c0 .69-.045 1.35-.135 1.98h-16.065c.15 2.19 1.065 3.285 2.745 3.285 1.08 0 1.86-.495 2.34-1.485h10.575c-.36 1.8-1.125 3.42-2.295 4.86-1.14 1.41-2.595 2.535-4.365 3.375-1.74.81-3.66 1.215-5.76 1.215-2.52 0-4.77-.525-6.75-1.575-1.95-1.05-3.48-2.55-4.59-4.5-1.08-1.98-1.62-4.29-1.62-6.93 0-2.64.54-4.935 1.62-6.885 1.11-1.98 2.64-3.495 4.59-4.545 1.98-1.05 4.23-1.575 6.75-1.575 2.52 0 4.755.525 6.705 1.575 1.98 1.02 3.51 2.49 4.59 4.41 1.11 1.92 1.665 4.185 1.665 6.795ZM142.883 22.7c0-.84-.27-1.47-.81-1.89-.54-.45-1.215-.675-2.025-.675-1.77 0-2.805.855-3.105 2.565h5.94Z"/>
  <path fill="#FE724C" d="M38.194 38.315c-2.55 0-4.845-.525-6.885-1.575-2.04-1.05-3.645-2.55-4.815-4.5-1.14-1.98-1.71-4.29-1.71-6.93 0-2.64.57-4.935 1.71-6.885a11.714 11.714 0 0 1 4.815-4.545c2.04-1.05 4.335-1.575 6.885-1.575s4.845.525 6.885 1.575a11.424 11.424 0 0 1 4.77 4.545c1.17 1.95 1.755 4.245 1.755 6.885 0 2.64-.585 4.95-1.755 6.93-1.14 1.95-2.73 3.45-4.77 4.5-2.04 1.05-4.335 1.575-6.885 1.575Zm0-8.64c.93 0 1.71-.36 2.34-1.08.63-.75.945-1.845.945-3.285 0-1.44-.315-2.52-.945-3.24-.63-.75-1.41-1.125-2.34-1.125-.93 0-1.71.375-2.34 1.125-.63.72-.945 1.8-.945 3.24 0 1.44.3 2.535.9 3.285.63.72 1.425 1.08 2.385 1.08Zm28.608 8.64c-2.55 0-4.845-.525-6.885-1.575-2.04-1.05-3.645-2.55-4.815-4.5-1.14-1.98-1.71-4.29-1.71-6.93 0-2.64.57-4.935 1.71-6.885a11.714 11.714 0 0 1 4.815-4.545c2.04-1.05 4.335-1.575 6.885-1.575s4.845.525 6.885 1.575a11.424 11.424 0 0 1 4.77 4.545c1.17 1.95 1.755 4.245 1.755 6.885 0 2.64-.585 4.95-1.755 6.93-1.14 1.95-2.73 3.45-4.77 4.5-2.04 1.05-4.335 1.575-6.885 1.575Zm0-8.64c.93 0 1.71-.36 2.34-1.08.63-.75.945-1.845.945-3.285 0-1.44-.315-2.52-.945-3.24-.63-.75-1.41-1.125-2.34-1.125-.93 0-1.71.375-2.34 1.125-.63.72-.945 1.8-.945 3.24 0 1.44.3 2.535.9 3.285.63.72 1.425 1.08 2.385 1.08Z"/>
</svg>
