<svg xmlns="http://www.w3.org/2000/svg" fill="none" viewBox="0 0 38 38"><path fill="#FE724C" d="M31.858 28.337a13.88 13.88 0 00-2.99-4.435 13.939 13.939 0 00-4.435-2.99c-.015-.008-.03-.012-.045-.02A9.202 9.202 0 0019 4.23a9.202 9.202 0 00-9.203 9.204 9.196 9.196 0 003.815 7.462c-.015.008-.03.011-.045.019a13.819 13.819 0 00-4.434 2.99 13.939 13.939 0 00-2.991 4.435 13.793 13.793 0 00-1.095 5.125.297.297 0 00.297.304H7.57c.164 0 .294-.13.297-.289a11.064 11.064 0 013.258-7.581A11.06 11.06 0 0119 22.637a11.06 11.06 0 017.875 3.262 11.063 11.063 0 013.258 7.581c.004.163.133.29.297.29h2.226a.297.297 0 00.297-.305 13.83 13.83 0 00-1.095-5.128zM19 19.817a6.342 6.342 0 01-4.512-1.87 6.342 6.342 0 01-1.87-4.513c0-1.704.663-3.307 1.87-4.513A6.342 6.342 0 0119 7.051a6.34 6.34 0 014.512 1.87 6.341 6.341 0 011.87 4.513 6.341 6.341 0 01-1.87 4.512A6.341 6.341 0 0119 19.816z"/></svg>