<svg xmlns="http://www.w3.org/2000/svg" xmlns:xlink="http://www.w3.org/1999/xlink"><defs>
    <clipPath id="a">
      <path fill="#fff" d="M0 0h135v40H0z"/>
    </clipPath>
  
    <linearGradient id="a" x1="21.8" x2="5.017" y1="8.71" y2="25.492" gradientUnits="userSpaceOnUse">
      <stop stop-color="#00A0FF"/>
      <stop offset=".007" stop-color="#00A1FF"/>
      <stop offset=".26" stop-color="#00BEFF"/>
      <stop offset=".512" stop-color="#00D2FF"/>
      <stop offset=".76" stop-color="#00DFFF"/>
      <stop offset="1" stop-color="#00E3FF"/>
    </linearGradient>
    <linearGradient id="b" x1="33.834" x2="9.637" y1="20.002" y2="20.002" gradientUnits="userSpaceOnUse">
      <stop stop-color="#FFE000"/>
      <stop offset=".409" stop-color="#FFBD00"/>
      <stop offset=".775" stop-color="orange"/>
      <stop offset="1" stop-color="#FF9C00"/>
    </linearGradient>
    <linearGradient id="c" x1="24.827" x2="2.069" y1="22.296" y2="45.055" gradientUnits="userSpaceOnUse">
      <stop stop-color="#FF3A44"/>
      <stop offset="1" stop-color="#C31162"/>
    </linearGradient>
    <linearGradient id="d" x1="7.297" x2="17.46" y1=".176" y2="10.339" gradientUnits="userSpaceOnUse">
      <stop stop-color="#32A071"/>
      <stop offset=".069" stop-color="#2DA771"/>
      <stop offset=".476" stop-color="#15CF74"/>
      <stop offset=".801" stop-color="#06E775"/>
      <stop offset="1" stop-color="#00F076"/>
    </linearGradient>
  </defs><symbol id="app-store-badge" viewBox="0 0 135 40">
  <g clip-path="url(#a)">
    <path fill="#A6A6A6" d="M124.249 0H10.757c-.414 0-.823 0-1.235.002-.346.002-.688.008-1.037.013-.758.007-1.513.067-2.26.176A8.208 8.208 0 0 0 4.08.818a7.294 7.294 0 0 0-1.826 1.179 6.352 6.352 0 0 0-1.33 1.621A6.093 6.093 0 0 0 .22 5.521a11.559 11.559 0 0 0-.202 2.002c-.01.307-.011.615-.017.921v23.114c.006.311.007.612.017.922.01.671.077 1.34.202 2.002a6.08 6.08 0 0 0 .705 1.905 6.306 6.306 0 0 0 1.33 1.614c.533.477 1.15.875 1.826 1.179a8.251 8.251 0 0 0 2.144.63c.748.11 1.503.168 2.26.177a169.197 169.197 0 0 0 2.273.013H124.25c.406 0 .818 0 1.223-.002.344 0 .697-.004 1.04-.01a16.872 16.872 0 0 0 2.257-.178 8.371 8.371 0 0 0 2.152-.63 7.102 7.102 0 0 0 1.825-1.18 6.501 6.501 0 0 0 1.333-1.613c.341-.6.576-1.242.698-1.905.126-.661.196-1.33.21-2.002.004-.31.004-.611.004-.921.009-.364.009-.725.009-1.094V9.536c0-.366 0-.73-.009-1.092 0-.306 0-.614-.004-.92a12.043 12.043 0 0 0-.21-2.003 6.096 6.096 0 0 0-.698-1.903c-.696-1.203-1.801-2.182-3.158-2.8a8.324 8.324 0 0 0-2.152-.627c-.746-.11-1.5-.17-2.257-.177-.343-.004-.696-.01-1.04-.012C125.067 0 124.655 0 124.249 0Z"/>
    <path fill="#000" d="M9.43 39.128c-.344 0-.68-.004-1.022-.01a16.153 16.153 0 0 1-2.112-.164 7.267 7.267 0 0 1-1.873-.548 6.135 6.135 0 0 1-1.578-1.017 5.408 5.408 0 0 1-1.154-1.397 5.276 5.276 0 0 1-.613-1.657 11.03 11.03 0 0 1-.188-1.876 80.722 80.722 0 0 1-.017-.913V8.441s.01-.692.017-.895a10.99 10.99 0 0 1 .187-1.872c.108-.579.315-1.14.614-1.663.295-.518.682-.99 1.147-1.398.465-.412 1-.757 1.585-1.023a7.193 7.193 0 0 1 1.868-.544 16.15 16.15 0 0 1 2.12-.164L9.43.87h116.14l1.032.013c.704.007 1.406.061 2.1.162a7.329 7.329 0 0 1 1.888.548c1.173.535 2.128 1.381 2.73 2.42.294.52.498 1.076.604 1.65.118.624.183 1.255.197 1.887.003.284.003.588.003.89.009.376.009.733.009 1.093v20.933c0 .363 0 .718-.009 1.075 0 .326 0 .623-.004.93a11.45 11.45 0 0 1-.193 1.854 5.302 5.302 0 0 1-.611 1.67c-.298.513-.685.98-1.147 1.386a6.13 6.13 0 0 1-1.582 1.023 7.24 7.24 0 0 1-1.885.55 15.96 15.96 0 0 1-2.112.163c-.331.007-.678.01-1.014.01l-1.226.003-114.92-.002Z"/>
    <path fill="#fff" d="M32.797 20.3a4.95 4.95 0 0 1 2.357-4.152 5.066 5.066 0 0 0-3.991-2.157c-1.68-.176-3.308 1.005-4.163 1.005-.872 0-2.19-.988-3.609-.959a5.315 5.315 0 0 0-4.473 2.728c-1.934 3.349-.491 8.27 1.362 10.976.926 1.326 2.01 2.806 3.427 2.754 1.387-.058 1.905-.885 3.58-.885 1.658 0 2.144.885 3.59.851 1.489-.024 2.427-1.33 3.321-2.669a10.962 10.962 0 0 0 1.519-3.092 4.781 4.781 0 0 1-2.92-4.4Zm-2.731-8.09a4.873 4.873 0 0 0 1.114-3.49 4.958 4.958 0 0 0-3.207 1.66 4.638 4.638 0 0 0-1.144 3.361 4.099 4.099 0 0 0 3.237-1.53ZM50.33 27.14h-4.733l-1.136 3.356h-2.005l4.483-12.418h2.083l4.483 12.418h-2.039l-1.135-3.356Zm-4.242-1.55h3.752l-1.85-5.446h-.052l-1.85 5.447Zm17.1.38c0 2.813-1.506 4.62-3.778 4.62a3.07 3.07 0 0 1-2.849-1.583h-.043v4.484H54.66V21.442h1.799v1.506h.034a3.212 3.212 0 0 1 2.883-1.6c2.297 0 3.812 1.816 3.812 4.622Zm-1.91 0c0-1.833-.947-3.038-2.393-3.038-1.42 0-2.375 1.23-2.375 3.038 0 1.824.955 3.046 2.375 3.046 1.446 0 2.393-1.197 2.393-3.046Zm11.875 0c0 2.813-1.506 4.62-3.778 4.62a3.069 3.069 0 0 1-2.849-1.583h-.043v4.484h-1.858V21.442h1.798v1.506h.035a3.212 3.212 0 0 1 2.882-1.6c2.298 0 3.813 1.816 3.813 4.622Zm-1.91 0c0-1.833-.947-3.038-2.393-3.038-1.42 0-2.375 1.23-2.375 3.038 0 1.824.955 3.046 2.375 3.046 1.446 0 2.393-1.197 2.393-3.046Zm8.496 1.066c.138 1.232 1.334 2.04 2.969 2.04 1.566 0 2.693-.808 2.693-1.919 0-.964-.68-1.54-2.29-1.936l-1.608-.388c-2.28-.55-3.34-1.617-3.34-3.348 0-2.142 1.868-3.614 4.52-3.614 2.623 0 4.422 1.472 4.483 3.614H85.29c-.113-1.239-1.137-1.987-2.634-1.987-1.497 0-2.522.757-2.522 1.858 0 .878.655 1.395 2.255 1.79l1.368.336c2.548.603 3.607 1.626 3.607 3.443 0 2.323-1.85 3.778-4.794 3.778-2.754 0-4.613-1.42-4.733-3.667h1.902ZM91.375 19.3v2.142h1.721v1.472h-1.721v4.991c0 .776.344 1.137 1.101 1.137.205-.004.409-.018.612-.043v1.463c-.34.064-.687.092-1.033.086-1.833 0-2.548-.689-2.548-2.444v-5.19h-1.316v-1.472h1.316V19.3h1.868Zm2.718 6.67c0-2.849 1.678-4.639 4.294-4.639 2.625 0 4.295 1.79 4.295 4.639 0 2.856-1.661 4.638-4.295 4.638-2.633 0-4.294-1.782-4.294-4.638Zm6.696 0c0-1.954-.896-3.108-2.402-3.108-1.505 0-2.4 1.162-2.4 3.108 0 1.962.895 3.106 2.4 3.106 1.506 0 2.402-1.144 2.402-3.106Zm3.425-4.528h1.773v1.541h.043a2.162 2.162 0 0 1 2.178-1.635 2.78 2.78 0 0 1 .636.07v1.737a2.594 2.594 0 0 0-.835-.112 1.872 1.872 0 0 0-1.936 2.083v5.37h-1.859v-9.053Zm13.199 6.395c-.25 1.643-1.851 2.771-3.899 2.771-2.634 0-4.268-1.764-4.268-4.595 0-2.84 1.643-4.682 4.19-4.682 2.505 0 4.08 1.72 4.08 4.466v.637h-6.394v.112a2.353 2.353 0 0 0 1.458 2.391c.31.127.643.186.977.173a2.05 2.05 0 0 0 2.091-1.273h1.765Zm-6.283-2.702h4.527a2.173 2.173 0 0 0-2.221-2.298 2.3 2.3 0 0 0-1.631.668 2.301 2.301 0 0 0-.675 1.63ZM45.855 8.73a2.64 2.64 0 0 1 2.807 2.966c0 1.906-1.03 3.002-2.807 3.002h-2.156V8.73h2.156Zm-1.229 5.124h1.125a1.876 1.876 0 0 0 1.968-2.146 1.882 1.882 0 0 0-1.968-2.134h-1.125v4.28Zm5.084-1.41a2.134 2.134 0 1 1 4.246 0 2.134 2.134 0 1 1-4.247 0Zm3.332 0c0-.976-.438-1.547-1.208-1.547-.772 0-1.207.571-1.207 1.547 0 .984.435 1.55 1.207 1.55.77 0 1.208-.57 1.208-1.55Zm6.56 2.254h-.922l-.93-3.317h-.071l-.927 3.317h-.913l-1.241-4.503h.901l.807 3.436h.066l.926-3.436h.852l.926 3.436h.07l.803-3.436h.889l-1.236 4.503Zm2.28-4.503h.855v.715h.067a1.348 1.348 0 0 1 1.344-.802 1.466 1.466 0 0 1 1.558 1.675v2.915h-.889v-2.692c0-.724-.314-1.084-.971-1.084a1.034 1.034 0 0 0-1.075 1.141v2.635h-.889v-4.503Zm5.24-1.758h.889v6.26h-.889v-6.26Zm2.124 4.007a2.134 2.134 0 1 1 4.248 0 2.134 2.134 0 1 1-4.248 0Zm3.333 0c0-.976-.438-1.546-1.208-1.546-.772 0-1.207.57-1.207 1.546 0 .984.435 1.55 1.207 1.55.77 0 1.208-.57 1.208-1.55Zm1.851.98c0-.81.603-1.277 1.674-1.344l1.22-.07v-.389c0-.476-.315-.744-.922-.744-.496 0-.84.182-.939.5h-.86c.091-.773.819-1.27 1.84-1.27 1.129 0 1.766.563 1.766 1.514v3.077h-.856v-.633h-.07a1.515 1.515 0 0 1-1.353.707 1.36 1.36 0 0 1-1.5-1.348Zm2.894-.384v-.377l-1.1.07c-.62.042-.901.253-.901.65 0 .405.351.64.835.64a1.064 1.064 0 0 0 1.166-.983Zm2.053-.596c0-1.423.731-2.324 1.869-2.324a1.485 1.485 0 0 1 1.38.79h.067V8.437h.889v6.26h-.852v-.71h-.07a1.563 1.563 0 0 1-1.414.785c-1.146 0-1.87-.901-1.87-2.328Zm.918 0c0 .955.45 1.53 1.203 1.53.749 0 1.212-.583 1.212-1.526 0-.938-.468-1.53-1.212-1.53-.748 0-1.203.58-1.203 1.526Zm6.963 0a2.134 2.134 0 1 1 4.248 0 2.134 2.134 0 1 1-4.248 0Zm3.333 0c0-.976-.438-1.547-1.208-1.547-.772 0-1.207.571-1.207 1.547 0 .984.435 1.55 1.207 1.55.77 0 1.208-.57 1.208-1.55Zm2.107-2.249h.855v.715h.067a1.348 1.348 0 0 1 1.343-.802 1.466 1.466 0 0 1 1.56 1.675v2.915h-.89v-2.692c0-.724-.314-1.084-.971-1.084a1.034 1.034 0 0 0-1.076 1.141v2.635h-.888v-4.503Zm8.846-1.121v1.141h.975v.749h-.975v2.315c0 .472.194.678.636.678.114 0 .227-.007.339-.02v.74a2.893 2.893 0 0 1-.483.046c-.989 0-1.382-.348-1.382-1.216v-2.543h-.715v-.749h.715V9.074h.89Zm2.189-.637h.881v2.482h.07a1.388 1.388 0 0 1 1.373-.807 1.484 1.484 0 0 1 1.551 1.678v2.908h-.89V12.01c0-.72-.335-1.084-.962-1.084a1.054 1.054 0 0 0-1.134 1.142v2.63h-.889V8.437Zm9.057 5.045a1.833 1.833 0 0 1-1.951 1.303 2.042 2.042 0 0 1-2.011-1.447 2.065 2.065 0 0 1-.07-.877 2.077 2.077 0 0 1 2.077-2.353c1.253 0 2.008.856 2.008 2.27v.31h-3.179v.05a1.19 1.19 0 0 0 1.199 1.29 1.082 1.082 0 0 0 1.071-.546h.856Zm-3.126-1.451h2.274a1.089 1.089 0 0 0-.666-1.084 1.09 1.09 0 0 0-.442-.083 1.153 1.153 0 0 0-1.166 1.167Z"/>
  </g>
  
</symbol><symbol id="google-play-badge" viewBox="0 0 135 40">
  <path fill="#000" d="M130 0H5a5 5 0 0 0-5 5v30a5 5 0 0 0 5 5h125a5 5 0 0 0 5-5V5a5 5 0 0 0-5-5Z"/>
  <path fill="#A6A6A6" d="M130 .8a4.202 4.202 0 0 1 4.2 4.2v30a4.202 4.202 0 0 1-4.2 4.2H5A4.205 4.205 0 0 1 .8 35V5A4.205 4.205 0 0 1 5 .8h125Zm0-.8H5a5.015 5.015 0 0 0-5 5v30a5.015 5.015 0 0 0 5 5h125a5.014 5.014 0 0 0 5-5V5a5.015 5.015 0 0 0-5-5Z"/>
  <path fill="#fff" stroke="#fff" stroke-miterlimit="10" stroke-width=".2" d="M47.418 10.243a2.707 2.707 0 0 1-.745 2.003 2.909 2.909 0 0 1-2.204.888A3.09 3.09 0 0 1 41.352 10a3.092 3.092 0 0 1 3.117-3.134c.423-.001.843.084 1.232.251.36.147.682.376.938.67l-.527.529a2.026 2.026 0 0 0-1.643-.712A2.32 2.32 0 0 0 42.14 10a2.36 2.36 0 0 0 4.006 1.727 1.89 1.89 0 0 0 .503-1.216H44.47v-.72h2.907c.028.149.042.3.042.452Zm4.61-2.506h-2.733V9.64h2.464v.72h-2.464v1.903h2.733V13h-3.503V7h3.503v.737ZM55.279 13h-.772V7.737h-1.676V7h4.123v.737H55.28V13Zm4.659 0V7h.77v6h-.77Zm4.19 0h-.771V7.737H61.68V7h4.123v.737h-1.676V13Zm9.482-.775a3.115 3.115 0 0 1-4.4 0A3.068 3.068 0 0 1 68.326 10a3.068 3.068 0 0 1 .884-2.225 3.105 3.105 0 0 1 4.395.004A3.068 3.068 0 0 1 74.493 10a3.072 3.072 0 0 1-.884 2.225Zm-3.83-.503a2.307 2.307 0 0 0 3.259 0A2.347 2.347 0 0 0 73.706 10a2.349 2.349 0 0 0-.667-1.722 2.307 2.307 0 0 0-3.26 0A2.35 2.35 0 0 0 69.113 10a2.35 2.35 0 0 0 .666 1.722ZM75.575 13V7h.939l2.916 4.668h.033l-.033-1.157V7h.771v6h-.805l-3.05-4.894h-.034l.034 1.157V13h-.77Z"/>
  <path fill="#fff" d="M68.136 21.752a4.253 4.253 0 1 0 4.27 4.253 4.19 4.19 0 0 0-4.27-4.253Zm0 6.83a2.584 2.584 0 1 1 2.4-2.577 2.46 2.46 0 0 1-2.4 2.578Zm-9.314-6.83a4.254 4.254 0 1 0 4.27 4.253 4.19 4.19 0 0 0-4.27-4.253Zm0 6.83a2.584 2.584 0 1 1 2.4-2.577 2.461 2.461 0 0 1-2.4 2.578Zm-11.078-5.525v1.804h4.317a3.766 3.766 0 0 1-.983 2.272 4.42 4.42 0 0 1-3.334 1.32 4.801 4.801 0 0 1 0-9.601 4.602 4.602 0 0 1 3.254 1.289l1.273-1.273a6.294 6.294 0 0 0-4.527-1.82 6.608 6.608 0 0 0-6.19 9.155 6.608 6.608 0 0 0 6.19 4.055 6.039 6.039 0 0 0 4.607-1.853 5.962 5.962 0 0 0 1.563-4.22 5.874 5.874 0 0 0-.097-1.128h-6.073Zm45.308 1.401a3.953 3.953 0 0 0-3.641-2.706 4.043 4.043 0 0 0-4.011 4.253 4.162 4.162 0 0 0 4.22 4.253 4.23 4.23 0 0 0 3.545-1.885l-1.45-.966a2.43 2.43 0 0 1-2.095 1.175 2.163 2.163 0 0 1-2.062-1.288l5.687-2.352-.193-.484Zm-5.8 1.418a2.333 2.333 0 0 1 2.223-2.481 1.648 1.648 0 0 1 1.58.902l-3.803 1.579ZM82.628 30h1.87V17.5h-1.87V30Zm-3.06-7.298h-.065a2.947 2.947 0 0 0-2.24-.95 4.257 4.257 0 0 0 0 8.506 2.9 2.9 0 0 0 2.24-.967h.064v.613c0 1.627-.87 2.497-2.271 2.497a2.353 2.353 0 0 1-2.143-1.515l-1.627.677a4.052 4.052 0 0 0 3.77 2.513c2.19 0 4.044-1.289 4.044-4.43v-7.637h-1.773v.693Zm-2.143 5.88a2.587 2.587 0 0 1 0-5.155 2.397 2.397 0 0 1 2.271 2.594 2.378 2.378 0 0 1-2.271 2.561ZM101.806 17.5h-4.471V30H99.2v-4.736h2.606a3.886 3.886 0 0 0 3.784-5.42 3.886 3.886 0 0 0-3.784-2.345Zm.048 6.025H99.2V19.24h2.654a2.145 2.145 0 0 1 2.188 2.142 2.134 2.134 0 0 1-.644 1.531 2.146 2.146 0 0 1-1.544.612Zm11.532-1.795a3.507 3.507 0 0 0-3.33 1.914l1.657.691a1.766 1.766 0 0 1 1.705-.917 1.796 1.796 0 0 1 1.962 1.609v.128a4.13 4.13 0 0 0-1.946-.482c-1.785 0-3.603.981-3.603 2.814a2.893 2.893 0 0 0 1.964 2.608 2.89 2.89 0 0 0 1.14.143 2.63 2.63 0 0 0 2.381-1.223h.064v.965h1.801v-4.792c0-2.22-1.656-3.458-3.795-3.458Zm-.225 6.851c-.612 0-1.464-.305-1.464-1.061 0-.965 1.061-1.335 1.978-1.335a3.325 3.325 0 0 1 1.705.418 2.264 2.264 0 0 1-2.219 1.978Zm10.582-6.578-2.139 5.42h-.064l-2.22-5.42h-2.01l3.329 7.575-1.898 4.214h1.946l5.131-11.789h-2.075ZM106.936 30h1.866V17.5h-1.866V30Z"/>
  <path fill="url(#a)" d="M10.435 7.538a2.002 2.002 0 0 0-.462 1.405V31.06a2 2 0 0 0 .462 1.405l.074.072L22.9 20.147v-.292L10.51 7.465l-.074.073Z"/>
  <path fill="url(#b)" d="m27.028 24.279-4.13-4.132v-.292l4.13-4.13.094.053 4.893 2.78c1.397.794 1.397 2.093 0 2.887l-4.893 2.78-.094.054Z"/>
  <path fill="url(#c)" d="m27.122 24.225-4.224-4.224-12.463 12.463a1.626 1.626 0 0 0 2.078.062l14.609-8.3Z"/>
  <path fill="url(#d)" d="m27.122 15.777-14.609-8.3a1.627 1.627 0 0 0-2.078.061l12.463 12.463 4.224-4.224Z"/>
  <path fill="#000" d="M27.029 24.132 12.513 32.38a1.666 1.666 0 0 1-2.003.011l-.075.075.074.072a1.666 1.666 0 0 0 2.004-.011l14.609-8.3-.093-.094Z" opacity=".2"/>
  <path fill="#000" d="M10.435 32.319a2.003 2.003 0 0 1-.462-1.405v.146c-.031.51.134 1.012.462 1.405l.075-.075-.075-.072Zm21.58-11.02-4.986 2.833.093.093 4.893-2.78A1.754 1.754 0 0 0 33.063 20a1.862 1.862 0 0 1-1.048 1.298Z" opacity=".12"/>
  <path fill="#fff" d="m12.513 7.623 19.502 11.08a1.862 1.862 0 0 1 1.048 1.298 1.753 1.753 0 0 0-1.048-1.444L12.513 7.477c-1.397-.794-2.54-.134-2.54 1.467v.146c0-1.601 1.143-2.26 2.54-1.467Z" opacity=".25"/>
  
</symbol><symbol id="app-store" viewBox="0 0 27 27">
  <path fill="#fff" d="M19.707 14.125c-.01-1.798.804-3.154 2.45-4.153-.92-1.318-2.313-2.043-4.148-2.183C16.27 7.652 14.37 8.8 13.674 8.8c-.736 0-2.418-.965-3.741-.965-2.732.043-5.635 2.178-5.635 6.524 0 1.284.235 2.61.704 3.976.627 1.798 2.89 6.204 5.25 6.133 1.233-.03 2.106-.876 3.712-.876 1.558 0 2.365.876 3.742.876 2.38-.035 4.427-4.04 5.023-5.843-3.194-1.506-3.022-4.409-3.022-4.501Zm-2.771-8.042c1.337-1.587 1.215-3.032 1.176-3.552-1.182.069-2.547.804-3.325 1.709-.857.97-1.36 2.17-1.253 3.522 1.276.098 2.442-.558 3.402-1.68Z"/>
</symbol><symbol id="google-play" viewBox="0 0 24 27">
  <path fill="#fff" d="m12.954 13.068 2.957-3.327L6.36 3.702c-.633-.384-1.226-.438-1.746-.018l8.34 9.384Zm3.461 3.895 3.074-1.945c.6-.378.929-.914.929-1.508 0-.593-.329-1.13-.928-1.507l-2.783-1.759-3.133 3.524 2.841 3.195ZM4.1 4.503c-.064.22-.1.468-.1.74v16.543c0 .428.084.797.236 1.09l8.097-9.11L4.1 4.503Zm8.854 9.961-8.052 9.06c.154.066.32.101.495.101.312 0 .637-.104.968-.31l9.255-5.847-2.666-3.004Z"/>
</symbol><symbol id="icon-arrow" viewBox="0 0 24 25">
  <path fill="#18191F" d="M8.707 7.207a1 1 0 0 0-1.414-1.414l-6 6a1 1 0 0 0 0 1.414l6 6a1 1 0 0 0 1.414-1.414L4.414 13.5H21.99c.559 0 1.011-.448 1.011-1s-.452-1-1.01-1H4.413l4.293-4.293Z"/>
</symbol><symbol id="icon-download" viewBox="0 0 38 38">
  <path stroke="#FE724C" stroke-linecap="round" stroke-linejoin="round" stroke-width="3" d="m19 23.75 6.333-6.333M19 23.75v-19 19Zm0 0-6.333-6.333L19 23.75ZM3.167 26.917l.983 3.934a3.167 3.167 0 0 0 3.072 2.399h23.556a3.166 3.166 0 0 0 3.072-2.399l.983-3.934"/>
</symbol><symbol id="icon-enjoy" viewBox="0 0 38 38">
  <path fill="#FE724C" d="M12.678 3.776A145.915 145.915 0 0 0 5.94 5.81a1.142 1.142 0 0 0-.78.926c-1.315 9.873 1.725 17.077 5.352 21.822a25.47 25.47 0 0 0 5.431 5.303c.822.58 1.549.998 2.121 1.266.285.136.518.226.696.28.078.028.158.048.24.06.08-.013.16-.033.238-.06.18-.054.413-.144.698-.28.57-.268 1.299-.688 2.12-1.266a25.473 25.473 0 0 0 5.432-5.303c3.627-4.743 6.667-11.949 5.351-21.822a1.14 1.14 0 0 0-.779-.926 145.135 145.135 0 0 0-6.738-2.03c-2.636-.715-5.06-1.245-6.322-1.245-1.259 0-3.686.53-6.322 1.245v-.003Zm-.632-2.446C14.623.63 17.361 0 19 0c1.639 0 4.377.63 6.954 1.33a144.87 144.87 0 0 1 6.857 2.066 3.658 3.658 0 0 1 2.48 2.998c1.415 10.632-1.87 18.513-5.855 23.726a27.968 27.968 0 0 1-5.978 5.826 17.008 17.008 0 0 1-2.49 1.484c-.664.313-1.379.57-1.968.57s-1.302-.257-1.969-.57a16.99 16.99 0 0 1-2.489-1.484 27.971 27.971 0 0 1-5.978-5.826C4.58 24.907 1.294 17.026 2.71 6.393a3.657 3.657 0 0 1 2.48-2.997 148.335 148.335 0 0 1 6.856-2.066Z"/>
  <path fill="#FE724C" d="M25.778 12.222a1.187 1.187 0 0 1 0 1.681l-7.125 7.125a1.188 1.188 0 0 1-1.681 0l-3.563-3.562a1.19 1.19 0 0 1 1.682-1.682l2.722 2.724 6.284-6.286a1.187 1.187 0 0 1 1.681 0Z"/>
</symbol><symbol id="icon-user" viewBox="0 0 38 38">
  <path fill="#FE724C" d="M31.858 28.337a13.88 13.88 0 0 0-2.99-4.435 13.939 13.939 0 0 0-4.435-2.99c-.015-.008-.03-.012-.045-.02A9.202 9.202 0 0 0 19 4.23a9.202 9.202 0 0 0-9.203 9.204 9.196 9.196 0 0 0 3.815 7.462c-.015.008-.03.011-.045.019a13.819 13.819 0 0 0-4.434 2.99 13.939 13.939 0 0 0-2.991 4.435 13.793 13.793 0 0 0-1.095 5.125.297.297 0 0 0 .297.304H7.57c.164 0 .294-.13.297-.289a11.064 11.064 0 0 1 3.258-7.581A11.06 11.06 0 0 1 19 22.637a11.06 11.06 0 0 1 7.875 3.262 11.063 11.063 0 0 1 3.258 7.581c.004.163.133.29.297.29h2.226a.297.297 0 0 0 .297-.305 13.83 13.83 0 0 0-1.095-5.128ZM19 19.817a6.342 6.342 0 0 1-4.512-1.87 6.342 6.342 0 0 1-1.87-4.513c0-1.704.663-3.307 1.87-4.513A6.342 6.342 0 0 1 19 7.051a6.34 6.34 0 0 1 4.512 1.87 6.341 6.341 0 0 1 1.87 4.513 6.341 6.341 0 0 1-1.87 4.512A6.341 6.341 0 0 1 19 19.816Z"/>
</symbol><symbol id="circle" viewBox="0 0 1114 1114">
<circle cx="557" cy="557" r="557" fill="#FE724C"/>
</symbol><symbol id="triangle" viewBox="0 0 20 20">
    <polygon points="0 0, 20 20, 0 20"/>
</symbol><symbol id="logo" viewBox="0 0 154 39">
  <path fill="#fff" d="M22.75 6.14v7.92H10.24v4.41h9v7.515h-9V38H.25V6.14h22.5ZM82 25.31c0-2.67.45-4.98 1.35-6.93.93-1.98 2.19-3.48 3.78-4.5 1.59-1.05 3.376-1.575 5.356-1.575 1.65 0 3.06.345 4.23 1.035 1.2.66 2.115 1.575 2.745 2.745V4.7h9.99V38h-9.99v-3.465c-.63 1.17-1.545 2.1-2.745 2.79-1.17.66-2.58.99-4.23.99-1.98 0-3.765-.51-5.355-1.53-1.59-1.05-2.85-2.55-3.78-4.5-.9-1.98-1.35-4.305-1.35-6.975Zm17.506 0c0-1.35-.345-2.4-1.035-3.15s-1.575-1.125-2.655-1.125c-1.08 0-1.965.375-2.655 1.125-.69.75-1.035 1.8-1.035 3.15 0 1.35.345 2.4 1.035 3.15s1.575 1.125 2.655 1.125c1.08 0 1.965-.375 2.655-1.125.69-.75 1.035-1.8 1.035-3.15Zm19.471-14.715c-1.74 0-3.135-.465-4.185-1.395-1.05-.93-1.575-2.1-1.575-3.51 0-1.44.525-2.625 1.575-3.555 1.05-.96 2.445-1.44 4.185-1.44 1.71 0 3.09.48 4.14 1.44 1.05.93 1.575 2.115 1.575 3.555 0 1.41-.525 2.58-1.575 3.51-1.05.93-2.43 1.395-4.14 1.395Zm4.95 2.025V38h-9.99V12.62h9.99Zm29.081 12.465c0 .69-.045 1.35-.135 1.98h-16.065c.15 2.19 1.065 3.285 2.745 3.285 1.08 0 1.86-.495 2.34-1.485h10.575c-.36 1.8-1.125 3.42-2.295 4.86-1.14 1.41-2.595 2.535-4.365 3.375-1.74.81-3.66 1.215-5.76 1.215-2.52 0-4.77-.525-6.75-1.575-1.95-1.05-3.48-2.55-4.59-4.5-1.08-1.98-1.62-4.29-1.62-6.93 0-2.64.54-4.935 1.62-6.885 1.11-1.98 2.64-3.495 4.59-4.545 1.98-1.05 4.23-1.575 6.75-1.575 2.52 0 4.755.525 6.705 1.575 1.98 1.02 3.51 2.49 4.59 4.41 1.11 1.92 1.665 4.185 1.665 6.795ZM142.883 22.7c0-.84-.27-1.47-.81-1.89-.54-.45-1.215-.675-2.025-.675-1.77 0-2.805.855-3.105 2.565h5.94Z"/>
  <path fill="#FE724C" d="M38.194 38.315c-2.55 0-4.845-.525-6.885-1.575-2.04-1.05-3.645-2.55-4.815-4.5-1.14-1.98-1.71-4.29-1.71-6.93 0-2.64.57-4.935 1.71-6.885a11.714 11.714 0 0 1 4.815-4.545c2.04-1.05 4.335-1.575 6.885-1.575s4.845.525 6.885 1.575a11.424 11.424 0 0 1 4.77 4.545c1.17 1.95 1.755 4.245 1.755 6.885 0 2.64-.585 4.95-1.755 6.93-1.14 1.95-2.73 3.45-4.77 4.5-2.04 1.05-4.335 1.575-6.885 1.575Zm0-8.64c.93 0 1.71-.36 2.34-1.08.63-.75.945-1.845.945-3.285 0-1.44-.315-2.52-.945-3.24-.63-.75-1.41-1.125-2.34-1.125-.93 0-1.71.375-2.34 1.125-.63.72-.945 1.8-.945 3.24 0 1.44.3 2.535.9 3.285.63.72 1.425 1.08 2.385 1.08Zm28.608 8.64c-2.55 0-4.845-.525-6.885-1.575-2.04-1.05-3.645-2.55-4.815-4.5-1.14-1.98-1.71-4.29-1.71-6.93 0-2.64.57-4.935 1.71-6.885a11.714 11.714 0 0 1 4.815-4.545c2.04-1.05 4.335-1.575 6.885-1.575s4.845.525 6.885 1.575a11.424 11.424 0 0 1 4.77 4.545c1.17 1.95 1.755 4.245 1.755 6.885 0 2.64-.585 4.95-1.755 6.93-1.14 1.95-2.73 3.45-4.77 4.5-2.04 1.05-4.335 1.575-6.885 1.575Zm0-8.64c.93 0 1.71-.36 2.34-1.08.63-.75.945-1.845.945-3.285 0-1.44-.315-2.52-.945-3.24-.63-.75-1.41-1.125-2.34-1.125-.93 0-1.71.375-2.34 1.125-.63.72-.945 1.8-.945 3.24 0 1.44.3 2.535.9 3.285.63.72 1.425 1.08 2.385 1.08Z"/>
</symbol></svg>