<svg xmlns="http://www.w3.org/2000/svg" fill="none" viewBox="0 0 38 38">
  <path fill="#FE724C" d="M12.678 3.776A145.915 145.915 0 0 0 5.94 5.81a1.142 1.142 0 0 0-.78.926c-1.315 9.873 1.725 17.077 5.352 21.822a25.47 25.47 0 0 0 5.431 5.303c.822.58 1.549.998 2.121 1.266.285.136.518.226.696.28.078.028.158.048.24.06.08-.013.16-.033.238-.06.18-.054.413-.144.698-.28.57-.268 1.299-.688 2.12-1.266a25.473 25.473 0 0 0 5.432-5.303c3.627-4.743 6.667-11.949 5.351-21.822a1.14 1.14 0 0 0-.779-.926 145.135 145.135 0 0 0-6.738-2.03c-2.636-.715-5.06-1.245-6.322-1.245-1.259 0-3.686.53-6.322 1.245v-.003Zm-.632-2.446C14.623.63 17.361 0 19 0c1.639 0 4.377.63 6.954 1.33a144.87 144.87 0 0 1 6.857 2.066 3.658 3.658 0 0 1 2.48 2.998c1.415 10.632-1.87 18.513-5.855 23.726a27.968 27.968 0 0 1-5.978 5.826 17.008 17.008 0 0 1-2.49 1.484c-.664.313-1.379.57-1.968.57s-1.302-.257-1.969-.57a16.99 16.99 0 0 1-2.489-1.484 27.971 27.971 0 0 1-5.978-5.826C4.58 24.907 1.294 17.026 2.71 6.393a3.657 3.657 0 0 1 2.48-2.997 148.335 148.335 0 0 1 6.856-2.066Z"/>
  <path fill="#FE724C" d="M25.778 12.222a1.187 1.187 0 0 1 0 1.681l-7.125 7.125a1.188 1.188 0 0 1-1.681 0l-3.563-3.562a1.19 1.19 0 0 1 1.682-1.682l2.722 2.724 6.284-6.286a1.187 1.187 0 0 1 1.681 0Z"/>
</svg>
